inDegrees=yes
name=ik_S54_A04_T02
DataType=double
version=3
OpenSimVersion=4.3-2021-08-27-4bc7ad9
endheader
time	pelvis_tilt	pelvis_list	pelvis_rotation	pelvis_tx	pelvis_ty	pelvis_tz	hip_flexion_r	hip_adduction_r	hip_rotation_r	knee_angle_r	knee_angle_r_beta	ankle_angle_r	subtalar_angle_r	mtp_angle_r	hip_flexion_l	hip_adduction_l	hip_rotation_l	knee_angle_l	knee_angle_l_beta	ankle_angle_l	subtalar_angle_l	mtp_angle_l	lumbar_extension	lumbar_bending	lumbar_rotation	arm_flex_r	arm_add_r	arm_rot_r	elbow_flex_r	pro_sup_r	wrist_flex_r	wrist_dev_r	arm_flex_l	arm_add_l	arm_rot_l	elbow_flex_l	pro_sup_l	wrist_flex_l	wrist_dev_l
0	0	0	0	0	0.9399999999999999	0	0	0	0	0	0	0	0	0	0	0	0	0	0	0	0	0	0	0	0	0	0	0	0	89.99999999963507	0	0	0	0	0	0	89.99999999869995	0	0
0.02	26.76190335204155	9.295117960862264	15.81367464273582	0	0.9399999999999999	0	27.78155724300654	-13.1377376017853	-9.106056161520048	75.65607638037103	1.320447631977788	0	0	0	36.23121252294261	-4.905559224408292	-8.558913570722913	75.05280485374362	1.309918557554608	0	0	0	0	0	0	3.028579121123022	-3.028579121123022	0.5422152832523215	14.79366206290614	89.45778474826025	0	0	3.028579121123022	-3.028579121123022	0.5422152832523215	14.79366206290614	89.45778474742691	0	0
0.04	26.59704167739894	9.404272771599457	16.08714945732642	0	0.9399999999999999	0	27.88623696398188	-13.39399186637611	-9.165436272291451	75.67868356840283	1.320842201843561	0	0	0	36.41445645714361	-4.368566010527168	-9.055329550720595	74.98428730943134	1.308722700810977	0	0	0	0	0	0	3.032381137366981	-3.032381137366981	0.5429503059954036	14.81876174760086	89.45704972556099	0	0	3.032381137366981	-3.032381137366981	0.5429503059954036	14.81876174760086	89.45704972472778	0	0
0.06	26.49487993447457	9.37688268441571	16.25385897973942	0	0.9399999999999999	0	27.96465629936831	-13.42901198858788	-9.206527557008977	75.69623569078097	1.321148544169772	0	0	0	36.5674892993033	-4.067816060190914	-8.916069418536598	74.91962475077321	1.307594126259629	0	0	0	0	0	0	3.034971083050889	-3.034971083050889	0.5434406279156253	14.8344635530669	89.4565594036698	0	0	3.034971083050889	-3.034971083050889	0.5434406279156253	14.8344635530669	89.45655940283677	0	0
0.08	26.43218507570365	9.317489534684555	16.31791276213474	0	0.9399999999999999	0	28.03185631715186	-13.42158509369568	-9.204106091723041	75.73406761200904	1.321808835757557	0	0	0	37.12276531592036	-3.975749416258674	-9.624397411066175	75.48864672576548	1.317525433239445	0	0	0	0	0	0	3.047576906032971	-3.047576906032971	0.5458851260781977	14.91851277768762	89.45411490565306	0	0	3.047576906032971	-3.047576906032971	0.5458851260781977	14.91851277768762	89.45411490482049	0	0
0.1	26.27090397288406	8.949118796209792	16.343491123674	0	0.9399999999999999	0	28.3352742572451	-13.24885927211232	-9.249925869315048	75.7614561912016	1.322286856641911	0	0	0	37.47120458902371	-4.392376252281578	-9.104312518048111	75.59896311072582	1.3194508173759	0	0	0	0	0	0	3.051529337095545	-3.051529337095545	0.5466377901189334	14.94297767078485	89.4533622416571	0	0	3.051529337095545	-3.051529337095545	0.5466377901189334	14.94297767078485	89.45336224082465	0	0
0.12	26.04135832940524	8.79517022398224	16.26663998422676	0	0.9399999999999999	0	28.61124648750914	-13.12930393810995	-9.172311940637639	75.75596158435035	1.322190957661254	0	0	0	37.78920855386605	-4.510973723348579	-8.849066930895638	75.93716982793333	1.325353638143532	0	0	0	0	0	0	3.06112857889766	-3.06112857889766	0.5484972396404209	15.00647481679247	89.45150279224656	0	0	3.06112857889766	-3.06112857889766	0.5484972396404209	15.00647481679247	89.45150279141443	0	0
0.14	25.72427850713924	8.585452990137618	16.16417548687322	0	0.9399999999999999	0	29.2305712280114	-13.04925085548633	-9.142138684569719	75.81277224841676	1.323182490799457	0	0	0	38.16603563856592	-4.40650929952823	-8.985812525008157	76.00112163376987	1.326469807717976	0	0	0	0	0	0	3.06502572388206	-3.06502572388206	0.5492487931995341	15.03176783876511	89.45075123873224	0	0	3.06502572388206	-3.06502572388206	0.5492487931995341	15.03176783876511	89.45075123790022	0	0
0.16	25.5729929511019	8.474580174938787	16.1044867414094	0	0.9399999999999999	0	29.44698300483945	-12.92276464976446	-9.094539090839552	75.79119719337683	1.322805935052711	0	0	0	38.31440883591901	-4.475057855162024	-9.134159343758467	76.19060962874772	1.329776997123342	0	0	0	0	0	0	3.069309757947385	-3.069309757947385	0.5500690466796088	15.05877569192211	89.44993098530099	0	0	3.069309757947385	-3.069309757947385	0.5500690466796088	15.05877569192211	89.44993098446911	0	0
0.18	25.38669919439792	8.285996966520466	15.95036301206697	0	0.9399999999999999	0	29.80649162125632	-12.78613975730823	-9.102268231919496	75.75220361822915	1.32212536877926	0	0	0	38.5800258791098	-4.651548900441298	-9.379824963374983	76.61332987760191	1.337154857280698	0	0	0	0	0	0	3.082120132383546	-3.082120132383546	0.5525439169167244	15.14230574324694	89.44745611521141	0	0	3.082120132383546	-3.082120132383546	0.5525439169167244	15.14230574324694	89.44745611437993	0	0
0.2	25.23189672321811	8.099284729923861	15.72489949024677	0	0.9399999999999999	0	30.14134383237045	-12.6546725289263	-9.022536659785596	75.62908154089364	1.31997648314786	0	0	0	38.68290639426253	-4.808181851078349	-9.356535603651132	76.80467866136527	1.340494523577055	0	0	0	0	0	0	3.086596410323283	-3.086596410323283	0.5534089994019193	15.17145747234974	89.44659103277777	0	0	3.086596410323283	-3.086596410323283	0.5534089994019193	15.17145747234974	89.4465910319465	0	0
